<svg width="1600" height="900" viewBox="0 0 1600 900" fill="none" xmlns="http://www.w3.org/2000/svg">
<rect width="1600" height="900" fill="#32BC4E"/>
<path d="M800 650C910.457 650 1000 560.457 1000 450C1000 339.543 910.457 250 800 250C689.543 250 600 339.543 600 450C600 560.457 689.543 650 800 650Z" fill="white"/>
<g clip-path="url(#clip0_1080_83)">
<path fill-rule="evenodd" clip-rule="evenodd" d="M685 356.667C685 351.144 689.477 346.667 695 346.667H730C751.217 346.667 771.566 355.095 786.569 370.098C801.571 385.101 810 405.449 810 426.667C810 432.189 805.523 436.667 800 436.667C794.477 436.667 790 432.189 790 426.667C790 410.754 783.679 395.492 772.426 384.24C761.174 372.988 745.913 366.667 730 366.667H705V380C705 395.913 711.321 411.174 722.574 422.426C733.826 433.678 749.087 440 765 440H800C805.523 440 810 444.477 810 450C810 455.523 805.523 460 800 460H765C743.783 460 723.434 451.571 708.431 436.568C693.429 421.565 685 401.217 685 380V356.667Z" fill="#32BC4E"/>
<path fill-rule="evenodd" clip-rule="evenodd" d="M870 413.333C854.087 413.333 838.826 419.655 827.574 430.907C816.321 442.159 810 457.42 810 473.333C810 473.901 809.953 474.458 809.862 475H835C850.913 475 866.174 468.679 877.426 457.426C888.679 446.174 895 430.913 895 415V413.333H870ZM791.877 479.167C790.696 480.809 790 482.823 790 485C790 490.523 794.477 495 800 495H835C856.217 495 876.566 486.572 891.569 471.569C906.571 456.566 915 436.217 915 415V403.333C915 397.811 910.523 393.333 905 393.333H870C848.783 393.333 828.434 401.762 813.431 416.765C798.429 431.768 790 452.116 790 473.333C790 475.51 790.696 477.525 791.877 479.167Z" fill="#32BC4E"/>
<path fill-rule="evenodd" clip-rule="evenodd" d="M800 416.667C805.523 416.667 810 421.144 810 426.667V543.333C810 548.856 805.523 553.333 800 553.333C794.477 553.333 790 548.856 790 543.333V426.667C790 421.144 794.477 416.667 800 416.667Z" fill="#32BC4E"/>
</g>
<defs>
<clipPath id="clip0_1080_83">
<rect width="280" height="280" fill="white" transform="translate(660 310)"/>
</clipPath>
</defs>
</svg>
