<svg width="1600" height="900" viewBox="0 0 1600 900" fill="none" xmlns="http://www.w3.org/2000/svg">
<rect width="1600" height="900" fill="#F0FDF4"/>
<path d="M800.393 609.786C888.423 609.786 959.786 538.423 959.786 450.393C959.786 362.363 888.423 291 800.393 291C712.363 291 641 362.363 641 450.393C641 538.423 712.363 609.786 800.393 609.786Z" fill="#32BC4E"/>
<g clip-path="url(#clip0_1080_83)">
<path fill-rule="evenodd" clip-rule="evenodd" d="M708.742 376.01C708.742 371.608 712.31 368.04 716.712 368.04H744.605C761.515 368.04 777.732 374.757 789.689 386.714C801.645 398.671 808.363 414.888 808.363 431.797C808.363 436.199 804.794 439.767 800.393 439.767C795.991 439.767 792.423 436.199 792.423 431.797C792.423 419.115 787.385 406.952 778.418 397.985C769.45 389.017 757.287 383.979 744.605 383.979H724.681V394.605C724.681 407.288 729.719 419.45 738.687 428.418C747.654 437.385 759.817 442.423 772.499 442.423H800.393C804.794 442.423 808.363 445.991 808.363 450.393C808.363 454.795 804.794 458.363 800.393 458.363H772.499C755.59 458.363 739.373 451.645 727.416 439.689C715.459 427.732 708.742 411.515 708.742 394.605V376.01Z" fill="white"/>
<path fill-rule="evenodd" clip-rule="evenodd" d="M856.181 421.171C843.498 421.171 831.336 426.209 822.368 435.177C813.401 444.144 808.363 456.307 808.363 468.989C808.363 469.442 808.325 469.885 808.252 470.317H828.287C840.969 470.317 853.132 465.279 862.099 456.312C871.067 447.344 876.105 435.181 876.105 422.499V421.171H856.181ZM793.919 473.638C792.978 474.946 792.423 476.552 792.423 478.287C792.423 482.688 795.991 486.257 800.393 486.257H828.287C845.196 486.257 861.413 479.539 873.37 467.583C885.327 455.626 892.044 439.409 892.044 422.499V413.201C892.044 408.8 888.476 405.232 884.074 405.232H856.181C839.271 405.232 823.054 411.949 811.097 423.906C799.141 435.863 792.423 452.08 792.423 468.989C792.423 470.724 792.978 472.329 793.919 473.638Z" fill="white"/>
<path fill-rule="evenodd" clip-rule="evenodd" d="M800.393 423.827C804.795 423.827 808.363 427.396 808.363 431.797V524.776C808.363 529.178 804.795 532.746 800.393 532.746C795.991 532.746 792.423 529.178 792.423 524.776V431.797C792.423 427.396 795.991 423.827 800.393 423.827Z" fill="white"/>
</g>
<defs>
<clipPath id="clip0_1080_83">
<rect width="223.15" height="223.15" fill="white" transform="translate(688.818 338.818)"/>
</clipPath>
</defs>
</svg>
